<?xml version="1.0" encoding="UTF-8" standalone="no"?>
<!-- Created with Inkscape (http://www.inkscape.org/) -->

<svg
   width="24in"
   height="12in"
   viewBox="0 0 609.60123 304.80061"
   version="1.1"
   id="svg428"
   inkscape:version="1.2.2 (732a01da63, 2022-12-09, custom)"
   sodipodi:docname="CatFeederMech2_Part1.svg"
   xmlns:inkscape="http://www.inkscape.org/namespaces/inkscape"
   xmlns:sodipodi="http://sodipodi.sourceforge.net/DTD/sodipodi-0.dtd"
   xmlns="http://www.w3.org/2000/svg"
   xmlns:svg="http://www.w3.org/2000/svg">
  <sodipodi:namedview
     id="namedview430"
     pagecolor="#ffffff"
     bordercolor="#666666"
     borderopacity="1.0"
     inkscape:showpageshadow="2"
     inkscape:pageopacity="0.0"
     inkscape:pagecheckerboard="0"
     inkscape:deskcolor="#d1d1d1"
     inkscape:document-units="in"
     showgrid="false"
     inkscape:zoom="0.340606"
     inkscape:cx="835.27595"
     inkscape:cy="-19.083633"
     inkscape:window-width="1850"
     inkscape:window-height="1016"
     inkscape:window-x="70"
     inkscape:window-y="27"
     inkscape:window-maximized="1"
     inkscape:current-layer="layer1" />
  <defs
     id="defs425" />
  <g
     inkscape:groupmode="layer"
     id="layer2"
     inkscape:label="Guides">
    <path
       d="m 305.50335,111.70942 h 1.93041 v 4.16561 h 14.37642 v 2.46381 h -14.37642 v 2.921 h -1.11761 l -0.889,-2.921 h -0.9144 a 10.00762,10.00762 0 0 1 -2.28601,-0.2286 q -3.0734,-0.7366 -3.6322,-3.68301 a 7.5184151,7.5184151 0 0 1 -0.1016,-1.3462 7.950216,7.950216 0 0 1 0.0762,-1.1176 q 0.1016,-0.55881 0.2286,-1.16841 a 15.976632,15.976632 0 0 1 0.2286,-0.7366 l 1.9558,0.635 a 11.988824,11.988824 0 0 0 -0.254,0.9144 q -0.2032,0.86361 -0.2032,1.52401 a 3.3274067,3.3274067 0 0 0 0.1016,0.7874 2.1336043,2.1336043 0 0 0 0.8382,1.27 q 0.93981,0.6858 2.97181,0.6858 h 1.0668 z m 7.03582,11.55703 h 1.5748 v 11.25222 q 2.8702,-0.0762 4.34341,-1.4478 a 4.495809,4.495809 0 0 0 1.3462,-2.36221 6.8072137,6.8072137 0 0 0 0.1524,-1.524 q 0,-2.64161 -1.0922,-5.20701 h 2.1844 a 14.83363,14.83363 0 0 1 0.508,1.3462 11.353823,11.353823 0 0 1 0.3048,1.143 10.363221,10.363221 0 0 1 0.1778,1.01601 q 0.0508,0.508 0.0508,1.0922 a 20.14224,20.14224 0 0 1 0.0254,0.7112 9.6012193,9.6012193 0 0 1 -0.2794,2.3876 6.8072137,6.8072137 0 0 1 -1.9304,3.30201 7.2644146,7.2644146 0 0 1 -3.20041,1.75261 q -1.2954,0.3556 -2.921,0.3556 a 12.979426,12.979426 0 0 1 -2.56541,-0.254 q -1.5494,-0.30481 -2.7686,-1.04141 a 7.3152147,7.3152147 0 0 1 -0.9144,-0.6604 q -2.33681,-1.9304 -2.33681,-5.20701 a 7.5184151,7.5184151 0 0 1 0.2794,-2.1336 5.7150115,5.7150115 0 0 1 1.7526,-2.71781 6.9088139,6.9088139 0 0 1 3.14961,-1.5748 10.05842,10.05842 0 0 1 2.15901,-0.2286 z m 7.23901,-22.02185 h 1.8796 q 0.1778,0.3556 0.3048,1.01601 a 9.1948185,9.1948185 0 0 1 0.0254,0.1524 10.718822,10.718822 0 0 1 0.1016,0.7112 q 0.0254,0.3302 0.0254,0.6096 a 6.3246127,6.3246127 0 0 1 0,0.1016 6.451613,6.451613 0 0 1 -0.254,1.8796 q -0.6604,2.10821 -2.921,2.64161 a 7.7724156,7.7724156 0 0 1 -1.80341,0.2032 h -9.70281 v 2.3368 h -1.19381 l -1.0414,-2.3368 -3.47981,-1.0414 v -1.42241 h 3.78461 v -4.74981 h 1.93041 v 4.74981 h 9.60121 a 4.97841,4.97841 0 0 0 0.86361,-0.0762 q 0.4826,-0.1016 0.8636,-0.2794 a 2.3876048,2.3876048 0 0 0 0.5334,-0.3556 2.2860046,2.2860046 0 0 0 0.7366,-1.397 3.3020066,3.3020066 0 0 0 0.0508,-0.508 q 0,-0.6604 -0.1016,-1.27 -0.1016,-0.58421 -0.2032,-0.93981 a 3.6068072,3.6068072 0 0 0 0,-0.0254 z m -21.13284,40.15748 h 23.16484 v 2.46381 h -23.16484 z m 13.46202,-6.95961 v -8.50902 q -1.6002,0 -2.667,0.4572 a 3.8100076,3.8100076 0 0 0 -0.9144,0.58421 3.3782068,3.3782068 0 0 0 -1.1684,2.032 5.0800102,5.0800102 0 0 0 -0.0762,0.9398 4.8768098,4.8768098 0 0 0 0.17781,1.397 3.7592075,3.7592075 0 0 0 1.0922,1.72721 q 1.1684,1.0668 3.1242,1.3462 a 9.3472188,9.3472188 0 0 0 0.4318,0.0254 z"
       id="left_labelLayer"
       stroke="#777777"
       fill="#777777"
       style="font-size:12px;font-variation-settings:normal;opacity:1;vector-effect:non-scaling-stroke;fill:#777777;fill-opacity:1;fill-rule:evenodd;stroke:#777777;stroke-width:2;stroke-linecap:round;stroke-linejoin:miter;stroke-miterlimit:4;stroke-dasharray:none;stroke-dashoffset:0;stroke-opacity:1;-inkscape-stroke:none;stop-color:#000000;stop-opacity:1"
       vector-effect="non-scaling-stroke" />
    <path
       d="m 291.87277,245.44069 v 0.1016 a 15.595631,15.595631 0 0 1 1.143,-0.1016 13.055626,13.055626 0 0 1 0.6604,0 h 4.47041 v 1.62561 h -15.77343 v -1.32081 l 1.4986,-0.2286 v -0.0762 a 4.4450089,4.4450089 0 0 1 -0.7366,-0.6604 3.4290069,3.4290069 0 0 1 -0.5588,-0.8382 4.1148083,4.1148083 0 0 1 -0.3302,-1.1684 5.3340107,5.3340107 0 0 1 -0.0508,-0.762 5.0546101,5.0546101 0 0 1 0.1778,-1.42241 3.7338075,3.7338075 0 0 1 1.2954,-1.905 q 1.1938,-0.9652 3.20041,-1.143 a 10.718822,10.718822 0 0 1 0.9398,-0.0508 9.6520194,9.6520194 0 0 1 1.6256,0.127 q 0.8636,0.1524 1.5748,0.4826 a 4.6228093,4.6228093 0 0 1 0.96521,0.5842 3.9116079,3.9116079 0 0 1 1.4478,2.79401 5.5880112,5.5880112 0 0 1 0.0254,0.5334 5.00381,5.00381 0 0 1 -0.1524,1.27 4.3434087,4.3434087 0 0 1 -0.2286,0.6604 3.6576073,3.6576073 0 0 1 -1.1938,1.4986 z m 0.0254,16.07824 h 1.27 a 1.6256033,1.6256033 0 0 1 0.0762,0.2032 q 0.0508,0.2032 0.1016,0.4826 a 6.1722124,6.1722124 0 0 1 0.0254,0.1016 7.1374143,7.1374143 0 0 1 0.0508,0.4572 q 0.0254,0.254 0.0254,0.4826 a 4.2926086,4.2926086 0 0 1 -0.1524,1.27 q -0.4318,1.397 -1.95581,1.75261 a 5.1816104,5.1816104 0 0 1 -1.1938,0.127 h -6.47701 v 1.5748 h -0.7874 l -0.6858,-1.5748 -2.33681,-0.68581 v -0.9652 h 2.51461 v -3.1496 h 1.2954 v 3.1496 h 6.40081 a 3.3274067,3.3274067 0 0 0 0.5842,-0.0254 q 0.5588,-0.1016 0.9144,-0.4318 a 1.5240031,1.5240031 0 0 0 0.50801,-0.9398 2.2098044,2.2098044 0 0 0 0.0254,-0.3302 5.4102109,5.4102109 0 0 0 -0.0508,-0.8128 4.9530099,4.9530099 0 0 0 -0.0254,-0.0508 q -0.0254,-0.254 -0.0762,-0.4318 a 3.4544069,3.4544069 0 0 0 -0.0508,-0.1778 z m -2.43841,-11.40463 a 8.5090171,8.5090171 0 0 0 -1.651,-0.1524 q -1.0414,0 -1.93041,0.2286 a 5.1308103,5.1308103 0 0 0 -2.1844,1.11761 4.3180087,4.3180087 0 0 0 -1.27,2.0066 5.5372111,5.5372111 0 0 0 -0.2286,1.6256 6.4008129,6.4008129 0 0 0 0.1016,1.143 4.3688088,4.3688088 0 0 0 1.3716,2.54001 4.5466091,4.5466091 0 0 0 0.7874,0.5588 q 1.3208,0.762 3.35281,0.762 a 8.2296165,8.2296165 0 0 0 1.3462,-0.1016 6.0960122,6.0960122 0 0 0 1.651,-0.508 5.4102109,5.4102109 0 0 0 0.2286,-0.127 4.470409,4.470409 0 0 0 1.72721,-1.6256 4.5974092,4.5974092 0 0 0 0.4826,-1.0414 5.2832106,5.2832106 0 0 0 0.2032,-1.54941 6.4008129,6.4008129 0 0 0 -0.0762,-1.1176 4.3942088,4.3942088 0 0 0 -1.397,-2.5654 4.5974092,4.5974092 0 0 0 -0.76201,-0.55881 q -0.762,-0.4318 -1.7526,-0.635 z m -1.651,8.12802 a 8.3312167,8.3312167 0 0 0 1.1938,-0.0762 q 0.6096,-0.0762 1.0922,-0.2794 a 3.4544069,3.4544069 0 0 0 0.889,-0.4826 2.6924054,2.6924054 0 0 0 1.04141,-1.75261 4.0894082,4.0894082 0 0 0 0.0508,-0.6858 3.8354077,3.8354077 0 0 0 -0.127,-1.016 2.6670054,2.6670054 0 0 0 -0.96521,-1.4478 3.5306071,3.5306071 0 0 0 -1.0668,-0.5334 q -0.4826,-0.1778 -1.0922,-0.254 a 8.6868174,8.6868174 0 0 0 -1.016,-0.0508 8.2296165,8.2296165 0 0 0 -1.1684,0.0762 q -1.21921,0.1778 -1.98121,0.762 a 2.7178055,2.7178055 0 0 0 -0.9906,1.7018 4.1656084,4.1656084 0 0 0 -0.0762,0.7874 3.9116079,3.9116079 0 0 0 0.1016,0.9652 2.6162053,2.6162053 0 0 0 0.9652,1.47321 q 1.0414,0.8128 3.14961,0.8128 z m -0.3556,-12.80163 h 0.3556 q 2.286,0 3.2766,-0.7874 0.88901,-0.6858 0.99061,-2.1082 a 5.3086107,5.3086107 0 0 0 0,-0.3302 q 0,-1.42241 -1.14301,-2.20981 a 3.987808,3.987808 0 0 0 -1.1684,-0.5334 q -0.8382,-0.254 -1.9812,-0.254 a 8.3058167,8.3058167 0 0 0 -1.16841,0.0762 q -0.6096,0.0762 -1.0922,0.254 a 3.479807,3.479807 0 0 0 -0.8636,0.4572 2.5654052,2.5654052 0 0 0 -1.0668,1.87961 3.5560071,3.5560071 0 0 0 0,0.381 4.7498095,4.7498095 0 0 0 0.0762,0.8636 q 0.0762,0.508 0.3048,0.889 a 2.1844044,2.1844044 0 0 0 0.5334,0.635 2.8194057,2.8194057 0 0 0 0.8128,0.4572 q 0.8382,0.3048 2.13361,0.3302 z"
       id="top_labelLayer"
       stroke="#777777"
       fill="#777777"
       style="font-size:12px;font-variation-settings:normal;opacity:1;vector-effect:non-scaling-stroke;fill:#777777;fill-opacity:1;fill-rule:evenodd;stroke:#777777;stroke-width:2;stroke-linecap:round;stroke-linejoin:miter;stroke-miterlimit:4;stroke-dasharray:none;stroke-dashoffset:0;stroke-opacity:1;-inkscape-stroke:none;stop-color:#000000;stop-opacity:1"
       vector-effect="non-scaling-stroke" />
    <path
       d="m 105.98595,238.81128 v -0.0762 a 9.7536196,9.7536196 0 0 1 -0.3302,-0.2286 q -0.5334,-0.4064 -1.27,-1.0668 l -3.70841,-3.50521 v -1.9558 l 4.62281,4.39421 6.24841,-4.69901 v 1.9812 l -5.13081,3.83541 1.0668,1.2446 h 4.06401 v 1.6256 H 96.105329 v -1.6256 h 8.178821 a 10.972822,10.972822 0 0 1 0.3302,0 q 0.508,0.0254 1.3716,0.0762 z m 4.16561,33.32487 v 0.127 l 1.397,0.3556 v 1.1684 H 96.105329 v -1.651 h 3.75921 a 34.340869,34.340869 0 0 1 1.168401,0.0254 q 0.5334,0.0254 1.016,0.0508 a 20.701042,20.701042 0 0 1 0.0762,0.0254 v -0.1016 a 3.7338075,3.7338075 0 0 1 -1.6002,-2.71781 5.6134113,5.6134113 0 0 1 -0.0254,-0.6858 5.0292101,5.0292101 0 0 1 0.1778,-1.4224 3.7592075,3.7592075 0 0 1 1.27,-1.90501 4.8514097,4.8514097 0 0 1 1.65101,-0.8382 q 0.6858,-0.2286 1.4732,-0.3048 a 10.566421,10.566421 0 0 1 1.0414,-0.0508 9.6520194,9.6520194 0 0 1 1.6256,0.127 q 0.86361,0.1524 1.54941,0.4826 a 4.6228093,4.6228093 0 0 1 0.9652,0.5842 3.9116079,3.9116079 0 0 1 1.4732,2.79401 5.5880112,5.5880112 0 0 1 0.0254,0.5334 5.00381,5.00381 0 0 1 -0.1524,1.27 4.3434087,4.3434087 0 0 1 -0.254,0.6604 3.6576073,3.6576073 0 0 1 -1.1938,1.47321 z m 1.397,-18.69444 v 1.2192 l -1.5494,0.3302 v 0.0762 q 1.016,0.8128 1.397,1.62561 0.2794,0.6604 0.3302,1.6002 a 7.4168149,7.4168149 0 0 1 0.0254,0.4064 5.0546101,5.0546101 0 0 1 -0.1016,1.0414 q -0.127,0.6096 -0.4318,1.0922 a 2.8448057,2.8448057 0 0 1 -0.3048,0.40641 q -0.8382,0.9144 -2.3622,0.9144 -3.20041,0 -3.45441,-4.92761 a 16.078232,16.078232 0 0 1 0,-0.3302 l -0.0762,-1.85421 h -0.6604 a 4.7244095,4.7244095 0 0 0 -0.6858,0.0508 q -0.3556,0.0508 -0.63501,0.1524 a 1.8288037,1.8288037 0 0 0 -0.5842,0.3556 1.6764034,1.6764034 0 0 0 -0.4318,0.68581 q -0.1016,0.254 -0.1524,0.6096 a 4.0640082,4.0640082 0 0 0 -0.0254,0.4572 q 0,1.0922 0.5588,2.413 a 11.023622,11.023622 0 0 0 0.2794,0.6604 l -1.2446,0.508 q -0.4572,-0.8128 -0.6858,-1.7526 -0.254,-0.9652 -0.254,-1.9304 a 6.959614,6.959614 0 0 1 0.0762,-1.06681 q 0.0762,-0.5334 0.254,-0.9652 a 2.7940056,2.7940056 0 0 1 0.5334,-0.8382 q 0.8636,-0.9398 2.76861,-0.9398 z m -10.51562,-10.64262 1.397,0.508 a 7.3152147,7.3152147 0 0 0 -0.254,0.7874 8.7630176,8.7630176 0 0 0 -0.1016,0.381 q -0.127,0.5588 -0.127,1.016 a 3.6576073,3.6576073 0 0 0 -0.0254,0.127 3.6576073,3.6576073 0 0 0 0.2794,1.49861 q 0.8128,1.8288 3.96241,1.8288 1.3208,0 2.23521,-0.3556 a 3.4036068,3.4036068 0 0 0 0.8382,-0.4572 q 1.0668,-0.8128 1.0668,-2.38761 a 6.8834138,6.8834138 0 0 0 -0.2794,-1.905 8.5090171,8.5090171 0 0 0 -0.3048,-0.889 h 1.4732 a 4.6736094,4.6736094 0 0 1 0.4064,1.143 q 0.1524,0.7112 0.1524,1.6002 a 6.1468123,6.1468123 0 0 1 -0.1778,1.49861 4.1656084,4.1656084 0 0 1 -1.27,2.159 4.7752096,4.7752096 0 0 1 -1.8288,0.9906 q -0.71121,0.2286 -1.60021,0.2794 a 9.95682,9.95682 0 0 1 -0.6858,0.0254 q -1.9812,0 -3.30201,-0.6858 a 4.5466091,4.5466091 0 0 1 -0.9144,-0.635 4.2672086,4.2672086 0 0 1 -1.3462,-2.3368 6.477013,6.477013 0 0 1 -0.1524,-1.39701 7.4422149,7.4422149 0 0 1 0.1778,-1.5748 8.2296165,8.2296165 0 0 1 0.1016,-0.4572 q 0.0762,-0.2286 0.127,-0.4064 a 3.2512065,3.2512065 0 0 1 0.1524,-0.3556 z m 1.2446,27.96545 a 2.1844044,2.1844044 0 0 0 0.5588,0.63501 q 0.86361,0.6604 2.71781,0.7366 a 12.700025,12.700025 0 0 0 0.5588,0 q 2.28601,0 3.27661,-0.762 0.8636,-0.68581 0.9652,-2.10821 a 5.3086107,5.3086107 0 0 0 0.0254,-0.3302 3.2766066,3.2766066 0 0 0 -0.127,-0.9398 2.3622047,2.3622047 0 0 0 -0.9906,-1.3208 3.7846076,3.7846076 0 0 0 -1.016,-0.4826 q -0.48261,-0.12701 -1.06681,-0.20321 a 9.448819,9.448819 0 0 0 -1.0922,-0.0508 q -2.0066,0 -3.04801,0.66041 a 2.7178055,2.7178055 0 0 0 -0.127,0.0762 q -1.0414,0.7366 -1.0414,2.286 0,1.1176 0.4064,1.8034 z m 4.90221,-15.67183 h -0.9906 l 0.0762,1.62561 q 0.0508,1.651 0.4572,2.5146 a 2.5400051,2.5400051 0 0 0 0.1524,0.3302 1.7526035,1.7526035 0 0 0 1.27001,0.8382 2.5908052,2.5908052 0 0 0 0.4064,0.0254 2.3622047,2.3622047 0 0 0 0.5588,-0.0508 q 0.508,-0.127 0.8128,-0.4826 0.4572,-0.5334 0.4572,-1.524 0,-1.3208 -0.635,-2.15901 a 2.7432055,2.7432055 0 0 0 -0.2032,-0.254 2.7686056,2.7686056 0 0 0 -1.3716,-0.762 4.1910084,4.1910084 0 0 0 -0.96521,-0.1016 z"
       id="back_labelLayer"
       stroke="#777777"
       fill="#777777"
       style="font-size:12px;font-variation-settings:normal;opacity:1;vector-effect:non-scaling-stroke;fill:#777777;fill-opacity:1;fill-rule:evenodd;stroke:#777777;stroke-width:2;stroke-linecap:round;stroke-linejoin:miter;stroke-miterlimit:4;stroke-dasharray:none;stroke-dashoffset:0;stroke-opacity:1;-inkscape-stroke:none;stop-color:#000000;stop-opacity:1"
       vector-effect="non-scaling-stroke" />
    <path
       d="m 111.85336,103.60681 v 2.4638 h -10.56642 a 6.985014,6.985014 0 0 0 -1.0922,0.0762 q -0.584201,0.1016 -1.041411,0.3048 a 2.9464059,2.9464059 0 0 0 -0.8382,0.53341 2.7940056,2.7940056 0 0 0 -0.7366,1.143 q -0.254,0.7112 -0.254,1.7018 0,2.56541 1.4224,3.75921 1.397011,1.1684 4.572021,1.1684 h 8.53441 v 2.48921 H 88.688512 v -2.48921 h 7.010414 q 1.270003,0 2.108203,0.127 v -0.1524 q -1.1938,-0.7366 -1.8542,-2.0828 a 6.3500127,6.3500127 0 0 1 -0.635004,-2.08281 8.0264161,8.0264161 0 0 1 -0.0508,-0.9906 10.03302,10.03302 0 0 1 0.127,-1.6764 q 0.152401,-0.889 0.482604,-1.60021 a 4.4450089,4.4450089 0 0 1 0.8128,-1.1938 4.2926086,4.2926086 0 0 1 1.6764,-1.0668 q 0.6858,-0.254 1.54941,-0.3556 a 10.693421,10.693421 0 0 1 1.295401,-0.0762 z m -16.306834,22.60604 v -5.63881 h 1.549403 l 0.3556,3.02261 a 4.0132081,4.0132081 0 0 1 0.508,-0.3302 q 0.2794,-0.1524 0.6096,-0.3048 a 7.6200153,7.6200153 0 0 1 0.254,-0.1016 4.7498095,4.7498095 0 0 1 1.11761,-0.2794 6.0960122,6.0960122 0 0 1 0.762001,-0.0508 5.6642114,5.6642114 0 0 1 1.778,0.254 4.5720092,4.5720092 0 0 1 2.05741,1.397 5.486411,5.486411 0 0 1 1.143,2.1336 q 0.2286,0.83821 0.2794,1.80341 a 10.744222,10.744222 0 0 1 0,0.5588 7.950216,7.950216 0 0 1 -0.0508,0.9144 6.7056135,6.7056135 0 0 1 -0.0508,0.4318 q 0.4572,0.9144 1.0922,1.2954 a 1.8542037,1.8542037 0 0 0 0.9906,0.3048 1.2700025,1.2700025 0 0 0 0.43181,-0.0762 q 0.3302,-0.127 0.5334,-0.4572 a 1.3970028,1.3970028 0 0 0 0.0254,-0.0254 q 0.254,-0.4572 0.3048,-1.397 a 9.3980189,9.3980189 0 0 0 0.0254,-0.508 v -2.87021 a 10.10922,10.10922 0 0 1 0.1016,-1.5494 q 0.127,-0.7874 0.381,-1.4478 a 4.470409,4.470409 0 0 1 0.635,-1.0668 q 1.1176,-1.42241 3.22581,-1.42241 a 5.3594108,5.3594108 0 0 1 1.8542,0.3048 q 1.397,0.508 2.286,1.85421 0.99061,1.524 1.29541,4.01321 a 19.583439,19.583439 0 0 1 0.127,2.3368 13.843028,13.843028 0 0 1 -0.127,1.8542 q -0.127,0.93981 -0.381,1.70181 a 5.7404115,5.7404115 0 0 1 -0.68581,1.3716 q -1.1176,1.6256 -3.0734,1.7272 a 5.2070105,5.2070105 0 0 1 -0.2794,0 3.7846076,3.7846076 0 0 1 -2.59081,-0.9398 q -1.0668,-0.9652 -1.4732,-2.6924 -0.2794,0.635 -0.8636,1.0668 a 2.2860046,2.2860046 0 0 1 -1.2446,0.4064 2.8448057,2.8448057 0 0 1 -0.1524,0 2.8194057,2.8194057 0 0 1 -0.91441,-0.127 2.514605,2.514605 0 0 1 -0.635,-0.3302 q -0.508,-0.381 -0.9906,-1.0414 a 7.7724156,7.7724156 0 0 1 -0.3048,-0.4826 4.3434087,4.3434087 0 0 1 -1.524,1.8796 5.3594108,5.3594108 0 0 1 -0.254,0.1778 5.1054103,5.1054103 0 0 1 -2.46381,0.7874 6.2230125,6.2230125 0 0 1 -0.381,0.0254 q -2.692411,0 -4.140211,-1.6002 a 5.2578106,5.2578106 0 0 1 -1.117603,-2.03201 q -0.330201,-1.1176 -0.330201,-2.54 a 9.474219,9.474219 0 0 1 0.0762,-1.2446 7.2136145,7.2136145 0 0 1 0.228601,-1.06681 z M 109.79596,91.033783 h 1.905 q 0.1778,0.355601 0.2794,1.016002 a 9.1948185,9.1948185 0 0 1 0.0254,0.152401 10.718822,10.718822 0 0 1 0.1016,0.711201 q 0.0254,0.330201 0.0254,0.609601 a 6.3246127,6.3246127 0 0 1 0,0.101601 6.451613,6.451613 0 0 1 -0.254,1.905003 q -0.635,2.082805 -2.8956,2.616206 a 7.7724156,7.7724156 0 0 1 -1.82881,0.2032 h -9.702821 v 2.336802 h -1.1938 l -1.016004,-2.336802 -3.479807,-1.041402 v -1.422403 h 3.784608 v -4.749809 h 1.905003 v 4.749809 h 9.601221 a 4.97841,4.97841 0 0 0 0.8636,-0.0762 q 0.48261,-0.0762 0.86361,-0.279401 a 2.3876048,2.3876048 0 0 0 0.5334,-0.3556 2.2860046,2.2860046 0 0 0 0.762,-1.397003 3.3020066,3.3020066 0 0 0 0.0254,-0.508001 q 0,-0.660402 -0.1016,-1.270003 -0.0762,-0.584201 -0.1778,-0.939802 a 3.6068072,3.6068072 0 0 0 -0.0254,-0.0254 z m -14.376434,53.670307 2.286003,0.3302 q -0.1778,0.8382 -0.2032,1.524 a 5.7912116,5.7912116 0 0 0 -0.0254,0.25401 4.2926086,4.2926086 0 0 0 1.3716,3.175 5.8674118,5.8674118 0 0 0 0.254,0.2286 q 1.600211,1.397 3.987811,1.397 h 8.76302 v 2.46381 H 95.546526 v -2.032 l 2.997203,-0.2794 v -0.127 a 8.3312167,8.3312167 0 0 1 -1.3208,-0.93981 6.3754128,6.3754128 0 0 1 -1.1176,-1.2446 4.9276099,4.9276099 0 0 1 -0.863604,-2.81941 11.353823,11.353823 0 0 1 0.0508,-1.016 8.2804166,8.2804166 0 0 1 0.127001,-0.9144 z m 0.127,-5.53721 h 16.306834 v 2.4638 H 95.546526 Z m 15.925834,-12.09042 v 2.9464 q 0,1.70181 0.8128,2.64161 a 2.5908052,2.5908052 0 0 0 1.47321,0.8382 3.962408,3.962408 0 0 0 0.8382,0.0762 q 1.3208,0 2.0066,-1.0922 0.4572,-0.78741 0.6096,-2.00661 a 10.13462,10.13462 0 0 0 0.0762,-1.1938 q 0,-2.79401 -0.762,-4.29261 a 4.1148083,4.1148083 0 0 0 -0.1778,-0.3302 3.6068072,3.6068072 0 0 0 -0.7112,-0.8382 2.6924054,2.6924054 0 0 0 -1.8034,-0.6604 3.3528067,3.3528067 0 0 0 -0.6604,0.0762 q -0.40641,0.0762 -0.68581,0.254 a 1.5494031,1.5494031 0 0 0 -0.508,0.508 q -0.381,0.6096 -0.4826,2.0828 a 15.722632,15.722632 0 0 0 -0.0254,0.99061 z m -10.71882,5.18161 a 4.8260097,4.8260097 0 0 0 1.016,-0.1016 q 0.9906,-0.2032 1.57481,-0.86361 0.7874,-0.889 0.8636,-2.3622 a 6.3500127,6.3500127 0 0 0 0.0254,-0.3302 q 0,-2.87021 -2.18441,-3.45441 a 5.00381,5.00381 0 0 0 -1.3462,-0.1778 5.3086107,5.3086107 0 0 0 -1.447811,0.1778 q -2.2098,0.635 -2.2098,3.47981 0,1.3462 0.5334,2.2098 a 2.8448057,2.8448057 0 0 0 0.4064,0.4826 q 0.9398,0.93981 2.768611,0.93981 z m -10.083824,9.55042 a 2.7432055,2.7432055 0 0 0 0.457201,0.0508 2.9210059,2.9210059 0 0 0 0.254,-0.0254 q 0.254001,-0.0254 0.457201,-0.0762 a 1.2700025,1.2700025 0 0 0 0.508001,-0.33021 1.3970028,1.3970028 0 0 0 0.330201,-0.4826 1.5748032,1.5748032 0 0 0 0.1016,-0.5588 q 0,-0.5842 -0.431801,-1.016 -0.4064,-0.4318 -1.219202,-0.4318 a 2.8194057,2.8194057 0 0 0 -0.279401,0 q -0.254,0.0254 -0.431801,0.1016 a 1.2446025,1.2446025 0 0 0 -0.533401,0.3302 1.4478029,1.4478029 0 0 0 -0.4064,1.016 q 0,0.635 0.4064,1.0414 a 1.1430023,1.1430023 0 0 0 0.355601,0.25401 q 0.1778,0.1016 0.431801,0.127 z"
       id="right_labelLayer"
       stroke="#777777"
       fill="#777777"
       style="font-size:12px;font-variation-settings:normal;opacity:1;vector-effect:non-scaling-stroke;fill:#777777;fill-opacity:1;fill-rule:evenodd;stroke:#777777;stroke-width:2;stroke-linecap:round;stroke-linejoin:miter;stroke-miterlimit:4;stroke-dasharray:none;stroke-dashoffset:0;stroke-opacity:1;-inkscape-stroke:none;stop-color:#000000;stop-opacity:1"
       vector-effect="non-scaling-stroke" />
    <path
       d="m 451.53065,217.93056 v 1.65101 h -7.08662 q -0.8128,0 -1.3716,0.2032 a 1.981204,1.981204 0 0 0 -0.5588,0.3556 1.7272035,1.7272035 0 0 0 -0.5334,0.7874 q -0.0762,0.3048 -0.1016,0.6604 a 3.8354077,3.8354077 0 0 0 -0.0254,0.2794 4.2418085,4.2418085 0 0 0 0.0762,0.8636 q 0.2032,0.88901 0.8128,1.39701 0.889,0.7366 2.69241,0.7366 h 6.09601 v 1.651 h -7.08662 q -0.8128,0 -1.3716,0.2032 a 1.981204,1.981204 0 0 0 -0.5588,0.3556 1.7272035,1.7272035 0 0 0 -0.5334,0.7874 q -0.127,0.4064 -0.127,0.93981 0,1.5494 0.9398,2.2606 0.9144,0.7366 3.02261,0.7366 h 5.71501 v 1.651 h -10.87122 v -1.3462 l 1.4732,-0.2794 v -0.0762 a 3.2258065,3.2258065 0 0 1 -1.2192,-1.3208 3.9116079,3.9116079 0 0 1 -0.4318,-1.524 4.7244095,4.7244095 0 0 1 -0.0254,-0.35561 5.3848108,5.3848108 0 0 1 0.127,-1.2192 q 0.1778,-0.762 0.5842,-1.27 a 2.8194057,2.8194057 0 0 1 1.143,-0.8636 v -0.0762 q -0.8636,-0.4826 -1.3462,-1.397 a 4.1656084,4.1656084 0 0 1 -0.4826,-1.52401 5.2070105,5.2070105 0 0 1 -0.0254,-0.5842 5.7150115,5.7150115 0 0 1 0.1016,-1.0414 q 0.1016,-0.5842 0.3302,-1.016 a 2.7178055,2.7178055 0 0 1 0.508,-0.7112 2.8448057,2.8448057 0 0 1 1.016,-0.60961 q 0.4318,-0.1524 0.9652,-0.2286 a 7.5438151,7.5438151 0 0 1 1.0668,-0.0762 z m -1.39701,65.20193 v 0.127 l 1.39701,0.35561 v 1.1684 h -15.44323 v -1.65101 h 3.7592 a 34.340869,34.340869 0 0 1 1.16841,0.0254 q 0.5334,0.0254 1.016,0.0508 a 20.701042,20.701042 0 0 1 0.0762,0 v -0.0762 a 3.7338075,3.7338075 0 0 1 -1.6002,-2.7178 5.6134113,5.6134113 0 0 1 -0.0254,-0.6858 5.0292101,5.0292101 0 0 1 0.1778,-1.42241 3.7592075,3.7592075 0 0 1 1.27,-1.905 4.8514097,4.8514097 0 0 1 1.651,-0.8636 q 0.6858,-0.2032 1.4732,-0.2794 a 10.566421,10.566421 0 0 1 1.04141,-0.0508 9.6520194,9.6520194 0 0 1 1.6256,0.127 q 0.8636,0.1524 1.5494,0.4826 a 4.6228093,4.6228093 0 0 1 0.9652,0.5842 3.9116079,3.9116079 0 0 1 1.47321,2.76861 5.5880112,5.5880112 0 0 1 0.0254,0.5588 5.00381,5.00381 0 0 1 -0.1524,1.2446 4.3434087,4.3434087 0 0 1 -0.254,0.6858 3.6576073,3.6576073 0 0 1 -1.19381,1.4732 z m 0.0254,-28.06705 h 1.27001 a 1.6256033,1.6256033 0 0 1 0.0762,0.1778 q 0.0762,0.2032 0.127,0.508 a 6.1722124,6.1722124 0 0 1 0,0.1016 7.1374143,7.1374143 0 0 1 0.0762,0.4572 q 0.0254,0.254 0.0254,0.4826 a 4.2926086,4.2926086 0 0 1 -0.1778,1.27 q -0.4318,1.37161 -1.93041,1.75261 a 5.1816104,5.1816104 0 0 1 -1.2192,0.127 h -6.47701 v 1.5494 h -0.7874 l -0.6858,-1.5494 -2.31141,-0.6858 v -0.96521 h 2.51461 v -3.1496 h 1.27 v 3.1496 h 6.40081 a 3.3274067,3.3274067 0 0 0 0.5842,-0.0508 q 0.5842,-0.1016 0.9398,-0.4064 a 1.5240031,1.5240031 0 0 0 0.4826,-0.9398 2.2098044,2.2098044 0 0 0 0.0254,-0.3556 5.4102109,5.4102109 0 0 0 -0.0508,-0.7874 4.9530099,4.9530099 0 0 0 0,-0.0508 q -0.0508,-0.254 -0.1016,-0.4572 a 3.4544069,3.4544069 0 0 0 -0.0254,-0.1524 z m 0,-7.18822 h 1.27001 a 1.6256033,1.6256033 0 0 1 0.0762,0.2032 q 0.0762,0.2032 0.127,0.48261 a 6.1722124,6.1722124 0 0 1 0,0.1016 7.1374143,7.1374143 0 0 1 0.0762,0.4826 q 0.0254,0.254 0.0254,0.4572 a 4.2926086,4.2926086 0 0 1 -0.1778,1.27 q -0.4318,1.397 -1.93041,1.7526 a 5.1816104,5.1816104 0 0 1 -1.2192,0.127 h -6.47701 v 1.57481 h -0.7874 l -0.6858,-1.57481 -2.31141,-0.6858 v -0.9398 h 2.51461 v -3.17501 h 1.27 v 3.17501 h 6.40081 a 3.3274067,3.3274067 0 0 0 0.5842,-0.0508 q 0.5842,-0.1016 0.9398,-0.4318 a 1.5240031,1.5240031 0 0 0 0.4826,-0.9398 2.2098044,2.2098044 0 0 0 0.0254,-0.3302 5.4102109,5.4102109 0 0 0 -0.0508,-0.7874 4.9530099,4.9530099 0 0 0 0,-0.0508 q -0.0508,-0.25401 -0.1016,-0.45721 a 3.4544069,3.4544069 0 0 0 -0.0254,-0.1778 z m -2.413,15.21463 a 8.5090171,8.5090171 0 0 0 -1.651,-0.1524 q -1.06681,0 -1.95581,0.2286 a 5.1308103,5.1308103 0 0 0 -2.159,1.11761 4.3180087,4.3180087 0 0 0 -1.2954,2.0066 5.5372111,5.5372111 0 0 0 -0.2286,1.6256 6.4008129,6.4008129 0 0 0 0.1016,1.14301 4.3688088,4.3688088 0 0 0 1.3716,2.54 4.5466091,4.5466091 0 0 0 0.7874,0.5588 q 1.3462,0.7874 3.37821,0.7874 a 8.2296165,8.2296165 0 0 0 1.3208,-0.1016 6.0960122,6.0960122 0 0 0 1.6764,-0.5334 5.4102109,5.4102109 0 0 0 0.2286,-0.1016 4.470409,4.470409 0 0 0 1.72721,-1.6256 4.5974092,4.5974092 0 0 0 0.4572,-1.0668 5.2832106,5.2832106 0 0 0 0.2286,-1.52401 6.4008129,6.4008129 0 0 0 -0.1016,-1.1176 4.3942088,4.3942088 0 0 0 -1.39701,-2.5908 4.5974092,4.5974092 0 0 0 -0.762,-0.5588 q -0.762,-0.43181 -1.7272,-0.63501 z m 0,-26.61925 a 8.5090171,8.5090171 0 0 0 -1.651,-0.1524 q -1.06681,0 -1.95581,0.2286 a 5.1308103,5.1308103 0 0 0 -2.159,1.1176 4.3180087,4.3180087 0 0 0 -1.2954,2.00661 5.5372111,5.5372111 0 0 0 -0.2286,1.6256 6.4008129,6.4008129 0 0 0 0.1016,1.143 4.3688088,4.3688088 0 0 0 1.3716,2.54001 4.5466091,4.5466091 0 0 0 0.7874,0.5588 q 1.3462,0.7874 3.37821,0.7874 a 8.2296165,8.2296165 0 0 0 1.3208,-0.127 6.0960122,6.0960122 0 0 0 1.6764,-0.508 5.4102109,5.4102109 0 0 0 0.2286,-0.1016 4.470409,4.470409 0 0 0 1.72721,-1.6256 4.5974092,4.5974092 0 0 0 0.4572,-1.06681 5.2832106,5.2832106 0 0 0 0.2286,-1.524 6.4008129,6.4008129 0 0 0 -0.1016,-1.1176 4.3942088,4.3942088 0 0 0 -1.39701,-2.59081 4.5974092,4.5974092 0 0 0 -0.762,-0.5588 q -0.762,-0.4318 -1.7272,-0.635 z m -1.651,34.74727 a 8.3312167,8.3312167 0 0 0 1.1684,-0.0762 q 0.6096,-0.0762 1.1176,-0.254 a 3.4544069,3.4544069 0 0 0 0.889,-0.4826 2.6924054,2.6924054 0 0 0 1.016,-1.778 4.0894082,4.0894082 0 0 0 0.0762,-0.68581 3.8354077,3.8354077 0 0 0 -0.12701,-1.016 2.6670054,2.6670054 0 0 0 -0.9652,-1.4478 3.5306071,3.5306071 0 0 0 -1.0668,-0.5334 q -0.508,-0.1778 -1.1176,-0.2286 a 8.6868174,8.6868174 0 0 0 -0.9906,-0.0762 8.2296165,8.2296165 0 0 0 -1.19381,0.1016 q -1.2192,0.1524 -1.9558,0.7366 a 2.7178055,2.7178055 0 0 0 -1.016,1.7018 4.1656084,4.1656084 0 0 0 -0.0762,0.7874 3.9116079,3.9116079 0 0 0 0.127,0.96521 2.6162053,2.6162053 0 0 0 0.9398,1.4732 q 1.0668,0.8128 3.17501,0.8128 z m 0,-26.61925 a 8.3312167,8.3312167 0 0 0 1.1684,-0.0762 q 0.6096,-0.0762 1.1176,-0.254 a 3.4544069,3.4544069 0 0 0 0.889,-0.4826 2.6924054,2.6924054 0 0 0 1.016,-1.77801 4.0894082,4.0894082 0 0 0 0.0762,-0.6858 3.8354077,3.8354077 0 0 0 -0.12701,-1.016 2.6670054,2.6670054 0 0 0 -0.9652,-1.4478 3.5306071,3.5306071 0 0 0 -1.0668,-0.53341 q -0.508,-0.1778 -1.1176,-0.2286 a 8.6868174,8.6868174 0 0 0 -0.9906,-0.0762 8.2296165,8.2296165 0 0 0 -1.19381,0.0762 q -1.2192,0.1778 -1.9558,0.76201 a 2.7178055,2.7178055 0 0 0 -1.016,1.7018 4.1656084,4.1656084 0 0 0 -0.0762,0.7874 3.9116079,3.9116079 0 0 0 0.127,0.9652 2.6162053,2.6162053 0 0 0 0.9398,1.47321 q 1.0668,0.8128 3.17501,0.8128 z m -3.83541,37.16027 a 2.1844044,2.1844044 0 0 0 0.5588,0.635 q 0.8636,0.6604 2.71781,0.7366 a 12.700025,12.700025 0 0 0 0.5588,0 q 2.286,0 3.2766,-0.762 0.8636,-0.6858 0.9652,-2.1082 a 5.3086107,5.3086107 0 0 0 0.0254,-0.3302 3.2766066,3.2766066 0 0 0 -0.12701,-0.9398 2.3622047,2.3622047 0 0 0 -0.9906,-1.32081 3.7846076,3.7846076 0 0 0 -1.016,-0.4826 q -0.4826,-0.1524 -1.0668,-0.2032 a 9.448819,9.448819 0 0 0 -1.0922,-0.0762 q -2.00661,0 -3.04801,0.6858 a 2.7178055,2.7178055 0 0 0 -0.127,0.0762 q -1.0414,0.73661 -1.0414,2.28601 0,1.0922 0.4064,1.8034 z"
       id="bottom_labelLayer"
       stroke="#777777"
       fill="#777777"
       style="font-size:12px;font-variation-settings:normal;opacity:1;vector-effect:non-scaling-stroke;fill:#777777;fill-opacity:1;fill-rule:evenodd;stroke:#777777;stroke-width:2;stroke-linecap:round;stroke-linejoin:miter;stroke-miterlimit:4;stroke-dasharray:none;stroke-dashoffset:0;stroke-opacity:1;-inkscape-stroke:none;stop-color:#000000;stop-opacity:1"
       vector-effect="non-scaling-stroke" />
  </g>
  <g
     inkscape:label="Layer 1"
     inkscape:groupmode="layer"
     id="layer1">
    <path
       d="m 208.70376,195.75819 h 32.28346 v 2.99721 h 27.73686 v -2.99721 h 27.71145 v 2.99721 h 27.73686 v -2.99721 h 27.71145 v 2.99721 h 27.73686 v -2.99721 h 27.71146 4.572 v -31.62306 h -2.9972 v -27.71146 h 2.9972 v -27.73685 h -2.9972 V 80.975363 h 2.9972 V 53.238507 49.3523 H 379.6207 V 46.355094 H 351.88384 V 49.3523 H 324.17239 V 46.355094 H 296.43553 V 49.3523 H 268.72408 V 46.355094 H 240.98722 V 49.3523 h -27.71145 -4.57201 v 31.623063 h 2.9972 v 27.711457 h -2.9972 v 27.73685 h 2.9972 v 27.71146 h -2.9972 v 27.73686 z"
       id="left_outsideCutPath"
       stroke="#FF0000"
       stroke-width="0.1"
       style="font-size:12px;fill:none;fill-rule:evenodd;stroke:#ff0000;stroke-width:1;stroke-linecap:round;stroke-dasharray:none"
       vector-effect="non-scaling-stroke" />
    <path
       d="m 215.79961,300.5334 h 31.62307 v 2.99721 h 27.71145 v -2.99721 h 27.73686 v 2.99721 h 27.71145 v -2.99721 h 27.73686 3.88621 v -33.93446 h 2.9972 v -27.73686 h -2.9972 v -27.71146 -6.22301 h -31.62307 v -2.9972 h -27.71145 v 2.9972 h -27.73686 v -2.9972 h -27.71145 v 2.9972 h -27.73686 -3.88621 v 33.93447 h -2.9972 v 27.73686 h 2.9972 v 27.71145 z"
       id="top_outsideCutPath"
       stroke="#FF0000"
       stroke-width="0.1"
       style="font-size:12px;font-variation-settings:normal;opacity:1;vector-effect:non-scaling-stroke;fill:none;fill-opacity:1;fill-rule:evenodd;stroke:#ff0000;stroke-width:1;stroke-linecap:round;stroke-linejoin:miter;stroke-miterlimit:4;stroke-dasharray:none;stroke-dashoffset:0;stroke-opacity:1;-inkscape-stroke:none;stop-color:#000000;stop-opacity:1"
       vector-effect="non-scaling-stroke" />
    <path
       d="m 2.328338,303.53061 h 32.283465 v -2.99721 h 27.736856 v 2.99721 h 27.711456 v -2.99721 h 27.736855 v 2.99721 h 27.71146 v -2.99721 h 27.73686 v 2.99721 h 27.71145 4.57201 v -36.93167 h -2.99721 v -27.73686 h 2.99721 v -27.71146 -9.22021 h -32.28346 v 2.9972 h -27.73686 v -2.9972 h -27.71146 v 2.9972 H 90.060115 v -2.9972 H 62.348659 v 2.9972 H 34.611803 v -2.9972 H 6.9003471 2.328338 v 36.93167 h 2.997206 v 27.73686 H 2.328338 v 27.71145 z"
       id="back_outsideCutPath"
       stroke="#FF0000"
       stroke-width="0.1"
       style="font-size:12px;font-variation-settings:normal;opacity:1;vector-effect:non-scaling-stroke;fill:none;fill-opacity:1;fill-rule:evenodd;stroke:#ff0000;stroke-width:1;stroke-linecap:round;stroke-linejoin:miter;stroke-miterlimit:4;stroke-dasharray:none;stroke-dashoffset:0;stroke-opacity:1;-inkscape-stroke:none;stop-color:#000000;stop-opacity:1"
       vector-effect="non-scaling-stroke" />
    <path
       d="m 2.328338,195.75819 h 32.283465 v 2.99721 h 27.736856 v -2.99721 h 27.711456 v 2.99721 h 27.736855 v -2.99721 h 27.71146 v 2.99721 h 27.73686 v -2.99721 h 27.71145 4.57201 v -31.62306 h -2.99721 v -27.71146 h 2.99721 v -27.73685 h -2.99721 V 80.975363 h 2.99721 V 53.238507 49.3523 H 173.24529 V 46.355094 H 145.50843 V 49.3523 H 117.79697 V 46.355094 H 90.060115 V 49.3523 H 62.348659 V 46.355094 H 34.611803 V 49.3523 H 6.9003471 2.328338 V 80.975363 H 5.325544 V 108.68682 H 2.328338 v 27.73685 h 2.997206 v 27.71146 H 2.328338 v 27.73686 z"
       id="right_outsideCutPath"
       stroke="#FF0000"
       stroke-width="0.1"
       style="font-size:12px;font-variation-settings:normal;opacity:1;vector-effect:non-scaling-stroke;fill:none;fill-opacity:1;fill-rule:evenodd;stroke:#ff0000;stroke-width:1;stroke-linecap:round;stroke-linejoin:miter;stroke-miterlimit:4;stroke-dasharray:none;stroke-dashoffset:0;stroke-opacity:1;-inkscape-stroke:none;stop-color:#000000;stop-opacity:1"
       vector-effect="non-scaling-stroke" />
    <path
       d="m 370.70769,299.15993 h 31.62306 v 2.9972 h 27.71145 v -2.9972 h 27.73686 v 2.9972 h 27.71146 v -2.9972 h 27.73685 3.88621 v -33.93447 h 2.99721 V 237.4886 h -2.99721 v -27.71145 -6.22302 h -31.62306 v -2.9972 h -27.71146 v 2.9972 H 430.0422 v -2.9972 h -27.71145 v 2.9972 h -27.73686 -3.8862 v 33.93447 h -2.99721 v 27.73686 h 2.99721 v 27.71145 z"
       id="bottom_outsideCutPath"
       stroke="#FF0000"
       stroke-width="0.1"
       style="font-size:12px;font-variation-settings:normal;opacity:1;vector-effect:non-scaling-stroke;fill:none;fill-opacity:1;fill-rule:evenodd;stroke:#ff0000;stroke-width:1;stroke-linecap:round;stroke-linejoin:miter;stroke-miterlimit:4;stroke-dasharray:none;stroke-dashoffset:0;stroke-opacity:1;-inkscape-stroke:none;stop-color:#000000;stop-opacity:1"
       vector-effect="non-scaling-stroke" />
    <path
       d="m 416.21612,47.978782 v 31.623042 27.711426 27.73686 27.71146 27.73685 3.88621 h 33.93447 v 2.99721 h 27.73686 v -2.99721 h 27.71145 6.22302 V 162.76157 135.05011 107.31325 79.601824 51.864979 47.978792 h -33.93447 v -2.99721 h -27.73686 v 2.99721 h -27.71145 z"
       id="path2431"
       stroke="#FF0000"
       stroke-width="0.1"
       style="font-size:12px;font-variation-settings:normal;opacity:1;vector-effect:non-scaling-stroke;fill:none;fill-opacity:1;fill-rule:evenodd;stroke:#ff0000;stroke-width:1;stroke-linecap:round;stroke-linejoin:miter;stroke-miterlimit:4;stroke-dasharray:none;stroke-dashoffset:0;stroke-opacity:1;-inkscape-stroke:none;stop-color:#000000;stop-opacity:1"
       vector-effect="non-scaling-stroke"
       sodipodi:nodetypes="ccccccccccccccccccccccccc" />
    <path
       d="m 497.44549,128.8017 h -1.65101 v -7.08662 q 0,-0.8128 -0.2032,-1.3716 a 1.981204,1.981204 0 0 0 -0.3556,-0.5588 1.7272035,1.7272035 0 0 0 -0.7874,-0.5334 q -0.3048,-0.0762 -0.6604,-0.1016 a 3.8354077,3.8354077 0 0 0 -0.2794,-0.0254 4.2418085,4.2418085 0 0 0 -0.8636,0.0762 q -0.88901,0.2032 -1.39701,0.8128 -0.7366,0.889 -0.7366,2.69241 v 6.09601 h -1.651 v -7.08662 q 0,-0.8128 -0.2032,-1.3716 a 1.981204,1.981204 0 0 0 -0.3556,-0.5588 1.7272035,1.7272035 0 0 0 -0.7874,-0.5334 q -0.4064,-0.127 -0.93981,-0.127 -1.5494,0 -2.2606,0.9398 -0.7366,0.9144 -0.7366,3.02261 v 5.71501 h -1.651 v -10.87122 h 1.3462 l 0.2794,1.4732 h 0.0762 a 3.2258065,3.2258065 0 0 1 1.3208,-1.2192 3.9116079,3.9116079 0 0 1 1.524,-0.4318 4.7244095,4.7244095 0 0 1 0.35561,-0.0254 5.3848108,5.3848108 0 0 1 1.2192,0.127 q 0.762,0.1778 1.27,0.5842 a 2.8194057,2.8194057 0 0 1 0.8636,1.143 h 0.0762 q 0.4826,-0.8636 1.397,-1.3462 a 4.1656084,4.1656084 0 0 1 1.52401,-0.4826 5.2070105,5.2070105 0 0 1 0.5842,-0.0254 5.7150115,5.7150115 0 0 1 1.0414,0.1016 q 0.5842,0.1016 1.016,0.3302 a 2.7178055,2.7178055 0 0 1 0.7112,0.508 2.8448057,2.8448057 0 0 1 0.60961,1.016 q 0.1524,0.4318 0.2286,0.9652 a 7.5438151,7.5438151 0 0 1 0.0762,1.0668 z m -65.20193,-1.39701 h -0.127 l -0.35561,1.39701 h -1.1684 v -15.44323 h 1.65101 v 3.75921 a 34.340869,34.340869 0 0 1 -0.0254,1.1684 q -0.0254,0.5334 -0.0508,1.016 a 20.701042,20.701042 0 0 1 0,0.0762 h 0.0762 a 3.7338075,3.7338075 0 0 1 2.7178,-1.6002 5.6134113,5.6134113 0 0 1 0.68579,-0.0254 5.0292101,5.0292101 0 0 1 1.42242,0.17781 3.7592075,3.7592075 0 0 1 1.90499,1.26999 4.8514097,4.8514097 0 0 1 0.8636,1.651 q 0.2032,0.6858 0.27941,1.4732 a 10.566421,10.566421 0 0 1 0.0508,1.04142 9.6520194,9.6520194 0 0 1 -0.127,1.62559 q -0.1524,0.8636 -0.4826,1.5494 a 4.6228093,4.6228093 0 0 1 -0.5842,0.9652 3.9116079,3.9116079 0 0 1 -2.76861,1.47321 5.5880112,5.5880112 0 0 1 -0.5588,0.0254 5.00381,5.00381 0 0 1 -1.2446,-0.1524 4.3434087,4.3434087 0 0 1 -0.6858,-0.254 3.6576073,3.6576073 0 0 1 -1.47319,-1.19381 z m 28.06705,0.0254 v 1.27001 a 1.6256033,1.6256033 0 0 1 -0.1778,0.0762 q -0.2032,0.0762 -0.508,0.127 a 6.1722124,6.1722124 0 0 1 -0.1016,0 7.1374143,7.1374143 0 0 1 -0.4572,0.0762 q -0.254,0.0254 -0.4826,0.0254 a 4.2926086,4.2926086 0 0 1 -1.27,-0.1778 q -1.37161,-0.4318 -1.75261,-1.93041 a 5.1816104,5.1816104 0 0 1 -0.127,-1.2192 v -6.47701 h -1.5494 v -0.7874 l 1.5494,-0.6858 0.6858,-2.31141 h 0.96521 v 2.51461 h 3.1496 v 1.27 h -3.1496 v 6.40081 a 3.3274067,3.3274067 0 0 0 0.0508,0.5842 q 0.1016,0.5842 0.4064,0.9398 a 1.5240031,1.5240031 0 0 0 0.9398,0.4826 2.2098044,2.2098044 0 0 0 0.3556,0.0254 5.4102109,5.4102109 0 0 0 0.7874,-0.0508 4.9530099,4.9530099 0 0 0 0.0508,0 q 0.254,-0.0508 0.4572,-0.1016 a 3.4544069,3.4544069 0 0 0 0.1524,-0.0254 z m 7.18822,0 v 1.27001 a 1.6256033,1.6256033 0 0 1 -0.2032,0.0762 q -0.2032,0.0762 -0.48261,0.127 a 6.1722124,6.1722124 0 0 1 -0.1016,0 7.1374143,7.1374143 0 0 1 -0.4826,0.0762 q -0.254,0.0254 -0.4572,0.0254 a 4.2926086,4.2926086 0 0 1 -1.27,-0.1778 q -1.397,-0.4318 -1.7526,-1.93041 a 5.1816104,5.1816104 0 0 1 -0.127,-1.2192 v -6.47701 h -1.57481 v -0.7874 l 1.57481,-0.6858 0.6858,-2.31141 h 0.9398 v 2.51461 h 3.17501 v 1.27 h -3.17501 v 6.40081 a 3.3274067,3.3274067 0 0 0 0.0508,0.5842 q 0.1016,0.5842 0.4318,0.9398 a 1.5240031,1.5240031 0 0 0 0.9398,0.4826 2.2098044,2.2098044 0 0 0 0.3302,0.0254 5.4102109,5.4102109 0 0 0 0.7874,-0.0508 4.9530099,4.9530099 0 0 0 0.0508,0 q 0.25401,-0.0508 0.45721,-0.1016 a 3.4544069,3.4544069 0 0 0 0.1778,-0.0254 z m -15.21463,-2.413 a 8.5090171,8.5090171 0 0 0 0.1524,-1.651 q 0,-1.06681 -0.2286,-1.95581 a 5.1308103,5.1308103 0 0 0 -1.11761,-2.159 4.3180087,4.3180087 0 0 0 -2.0066,-1.2954 5.5372111,5.5372111 0 0 0 -1.6256,-0.2286 6.4008129,6.4008129 0 0 0 -1.14301,0.1016 4.3688088,4.3688088 0 0 0 -2.54,1.3716 4.5466091,4.5466091 0 0 0 -0.5588,0.7874 q -0.7874,1.3462 -0.7874,3.37822 a 8.2296165,8.2296165 0 0 0 0.1016,1.32079 6.0960122,6.0960122 0 0 0 0.5334,1.67641 5.4102109,5.4102109 0 0 0 0.1016,0.22859 4.470409,4.470409 0 0 0 1.6256,1.72721 4.5974092,4.5974092 0 0 0 1.0668,0.45721 5.2832106,5.2832106 0 0 0 1.52401,0.22859 6.4008129,6.4008129 0 0 0 1.1176,-0.1016 4.3942088,4.3942088 0 0 0 2.5908,-1.39701 4.5974092,4.5974092 0 0 0 0.5588,-0.762 q 0.43181,-0.762 0.63501,-1.7272 z m 26.61925,0 a 8.5090171,8.5090171 0 0 0 0.1524,-1.651 q 0,-1.06681 -0.2286,-1.95581 a 5.1308103,5.1308103 0 0 0 -1.1176,-2.159 4.3180087,4.3180087 0 0 0 -2.00661,-1.2954 5.5372111,5.5372111 0 0 0 -1.6256,-0.2286 6.4008129,6.4008129 0 0 0 -1.143,0.1016 4.3688088,4.3688088 0 0 0 -2.54001,1.3716 4.5466091,4.5466091 0 0 0 -0.5588,0.7874 q -0.7874,1.3462 -0.7874,3.37822 a 8.2296165,8.2296165 0 0 0 0.127,1.32079 6.0960122,6.0960122 0 0 0 0.508,1.67641 5.4102109,5.4102109 0 0 0 0.1016,0.22859 4.470409,4.470409 0 0 0 1.6256,1.72721 4.5974092,4.5974092 0 0 0 1.06681,0.45721 5.2832106,5.2832106 0 0 0 1.524,0.22859 6.4008129,6.4008129 0 0 0 1.1176,-0.1016 4.3942088,4.3942088 0 0 0 2.59081,-1.39701 4.5974092,4.5974092 0 0 0 0.5588,-0.762 q 0.4318,-0.762 0.635,-1.7272 z m -34.74727,-1.651 a 8.3312167,8.3312167 0 0 0 0.0762,1.1684 q 0.0762,0.6096 0.254,1.1176 a 3.4544069,3.4544069 0 0 0 0.4826,0.889 2.6924054,2.6924054 0 0 0 1.778,1.016 4.0894082,4.0894082 0 0 0 0.68581,0.0762 3.8354077,3.8354077 0 0 0 1.016,-0.12701 2.6670054,2.6670054 0 0 0 1.4478,-0.9652 3.5306071,3.5306071 0 0 0 0.5334,-1.0668 q 0.1778,-0.508 0.2286,-1.1176 a 8.6868174,8.6868174 0 0 0 0.0762,-0.9906 8.2296165,8.2296165 0 0 0 -0.1016,-1.19381 q -0.1524,-1.2192 -0.7366,-1.9558 a 2.7178055,2.7178055 0 0 0 -1.7018,-1.016 4.1656084,4.1656084 0 0 0 -0.7874,-0.0762 3.9116079,3.9116079 0 0 0 -0.96521,0.12701 2.6162053,2.6162053 0 0 0 -1.4732,0.93979 q -0.8128,1.0668 -0.8128,3.17501 z m 26.61925,0 a 8.3312167,8.3312167 0 0 0 0.0762,1.1684 q 0.0762,0.6096 0.254,1.1176 a 3.4544069,3.4544069 0 0 0 0.4826,0.889 2.6924054,2.6924054 0 0 0 1.77801,1.016 4.0894082,4.0894082 0 0 0 0.6858,0.0762 3.8354077,3.8354077 0 0 0 1.016,-0.12701 2.6670054,2.6670054 0 0 0 1.4478,-0.9652 3.5306071,3.5306071 0 0 0 0.53341,-1.0668 q 0.1778,-0.508 0.2286,-1.1176 a 8.6868174,8.6868174 0 0 0 0.0762,-0.9906 8.2296165,8.2296165 0 0 0 -0.0762,-1.19381 q -0.1778,-1.2192 -0.76201,-1.9558 a 2.7178055,2.7178055 0 0 0 -1.7018,-1.016 4.1656084,4.1656084 0 0 0 -0.7874,-0.0762 3.9116079,3.9116079 0 0 0 -0.9652,0.12701 2.6162053,2.6162053 0 0 0 -1.47321,0.93979 q -0.8128,1.0668 -0.8128,3.17501 z m -37.16027,-3.83541 a 2.1844044,2.1844044 0 0 0 -0.635,0.5588 q -0.6604,0.8636 -0.7366,2.71781 a 12.700025,12.700025 0 0 0 0,0.5588 q 0,2.286 0.762,3.2766 0.6858,0.8636 2.1082,0.9652 a 5.3086107,5.3086107 0 0 0 0.3302,0.0254 3.2766066,3.2766066 0 0 0 0.9398,-0.12701 2.3622047,2.3622047 0 0 0 1.32081,-0.9906 3.7846076,3.7846076 0 0 0 0.4826,-1.016 q 0.1524,-0.4826 0.2032,-1.0668 a 9.448819,9.448819 0 0 0 0.0762,-1.0922 q 0,-2.00661 -0.6858,-3.04801 a 2.7178055,2.7178055 0 0 0 -0.0762,-0.127 q -0.73661,-1.0414 -2.28601,-1.0414 -1.0922,0 -1.8034,0.4064 z"
       id="path2433"
       stroke="#777777"
       fill="#777777"
       style="font-size:12px;font-variation-settings:normal;opacity:1;vector-effect:non-scaling-stroke;fill:#777777;fill-opacity:1;fill-rule:evenodd;stroke:#777777;stroke-width:2;stroke-linecap:round;stroke-linejoin:miter;stroke-miterlimit:4;stroke-dasharray:none;stroke-dashoffset:0;stroke-opacity:1;-inkscape-stroke:none;stop-color:#000000;stop-opacity:1"
       vector-effect="non-scaling-stroke" />
    <path
       id="rect2529"
       style="opacity:1;vector-effect:non-scaling-stroke;fill:none;stroke:#ff0000;stroke-linecap:round;stop-color:#000000;stop-opacity:1"
       d="m 141.14812,266.59897 v -27.73686 h 3.99751 v 27.73686 z"
       sodipodi:nodetypes="ccccc" />
    <path
       id="rect2643"
       style="font-variation-settings:normal;opacity:1;fill:none;fill-opacity:1;stroke:#ff0000;stroke-width:0.254001;stroke-linecap:round;stroke-linejoin:miter;stroke-miterlimit:4;stroke-dasharray:none;stroke-dashoffset:0;stroke-opacity:1;stop-color:#000000;stop-opacity:1"
       d="m 458.25088,11.950661 c 0,-4.22148 -3.39874,-7.62022 -7.62021,-7.62022 h -45.33942 c -0.36363,0 -0.72046,0.0267 -1.07023,0.0754 a 19.050049,19.050049 0 0 0 -1.62161,-0.0754 19.050049,19.050049 0 0 0 -19.05001,19.05004 19.050049,19.050049 0 0 0 19.05001,19.05004 19.050049,19.050049 0 0 0 1.64539,-0.0729 c 0.34222,0.0466 0.69102,0.0729 1.04645,0.0729 h 45.33942 c 4.22147,0 7.62021,-3.39874 7.62021,-7.62022 z" />
    <path
       id="path10914"
       style="font-variation-settings:normal;opacity:1;vector-effect:non-scaling-stroke;fill:none;fill-opacity:1;stroke:#ff0000;stroke-width:0.849916;stroke-linecap:round;stroke-linejoin:miter;stroke-miterlimit:4;stroke-dasharray:none;stroke-dashoffset:0;stroke-opacity:1;-inkscape-stroke:none;stop-color:#000000;stop-opacity:1"
       inkscape:label="Center plate"
       d="m 604.17987,3.3860813 -95.45597,13.0868057 1.69675,12.376002 51.91359,163.873441 37.74702,-5.175 5.87329,-171.216951 z" />
    <circle
       style="font-variation-settings:normal;opacity:1;vector-effect:non-scaling-stroke;fill:none;fill-opacity:1;stroke:#ff0000;stroke-width:0.949315;stroke-linecap:round;stroke-linejoin:miter;stroke-miterlimit:4;stroke-dasharray:none;stroke-dashoffset:0;stroke-opacity:1;-inkscape-stroke:none;stop-color:#000000;stop-opacity:1"
       id="path18214"
       cx="430.88321"
       cy="63.237629"
       r="6.3500128" />
    <circle
       style="font-variation-settings:normal;opacity:1;vector-effect:non-scaling-stroke;fill:none;fill-opacity:1;stroke:#ff0000;stroke-width:0.949315;stroke-linecap:round;stroke-linejoin:miter;stroke-miterlimit:4;stroke-dasharray:none;stroke-dashoffset:0;stroke-opacity:1;-inkscape-stroke:none;stop-color:#000000;stop-opacity:1"
       id="circle18230"
       cx="183.76166"
       cy="225.69205"
       r="7.6200151" />
    <path
       id="rect2715"
       style="fill:none;fill-opacity:1;stroke:#ff0000;stroke-width:0.254001;stroke-linecap:square;stroke-dasharray:none;stroke-opacity:1;stop-color:#000000"
       d="m 461.11692,42.210433 h 22.70822 c 0.36363,0 0.72045,-0.0268 1.07022,-0.0755 a 19.050049,19.050049 0 0 0 1.62161,0.0755 19.050049,19.050049 0 0 0 19.05003,-19.05004 19.050049,19.050049 0 0 0 -19.05003,-19.0500421 19.050049,19.050049 0 0 0 -1.64538,0.0729 c -0.34222,-0.0466 -0.69102,-0.0729 -1.04645,-0.0729 h -22.70822 z" />
    <rect
       style="fill:none;fill-opacity:1;stroke:#ff0000;stroke-width:0.254001;stroke-linecap:square;stroke-dasharray:none;stroke-opacity:1;stop-color:#000000"
       id="rect2906"
       width="6.3500128"
       height="19.050037"
       x="421.88733"
       y="164.11525" />
    <circle
       style="fill:none;fill-opacity:1;stroke:#ff0000;stroke-width:0.254001;stroke-linecap:square;stroke-dasharray:none;stroke-opacity:1;stop-color:#000000"
       id="path4601"
       cx="442.50287"
       cy="23.380482"
       r="0.76200151" />
    <path
       id="path4640"
       style="font-variation-settings:normal;opacity:1;fill:none;fill-opacity:1;stroke:#ff0000;stroke-width:0.254001;stroke-linecap:round;stroke-linejoin:miter;stroke-miterlimit:4;stroke-dasharray:none;stroke-dashoffset:0;stroke-opacity:1;stop-color:#000000;stop-opacity:1"
       d="m 305.98188,34.590206 c 0,4.22148 3.39874,7.62022 7.62021,7.62022 h 45.33942 c 0.36363,0 0.72046,-0.0267 1.07023,-0.0754 a 19.050049,19.050049 0 0 0 1.62161,0.0754 19.050049,19.050049 0 0 0 19.05001,-19.05004 19.050049,19.050049 0 0 0 -19.05001,-19.05004 19.050049,19.050049 0 0 0 -1.64539,0.0729 c -0.34222,-0.0466 -0.69102,-0.0729 -1.04645,-0.0729 h -45.33942 c -4.22147,0 -7.62021,3.39874 -7.62021,7.62022 z" />
    <path
       id="path4642"
       style="fill:none;fill-opacity:1;stroke:#ff0000;stroke-width:0.254001;stroke-linecap:square;stroke-dasharray:none;stroke-opacity:1;stop-color:#000000"
       d="m 303.11584,4.330436 h -22.70822 c -0.36363,0 -0.72045,0.0268 -1.07022,0.0755 a 19.050049,19.050049 0 0 0 -1.62161,-0.0755 19.050049,19.050049 0 0 0 -19.05003,19.05004 19.050049,19.050049 0 0 0 19.05003,19.05005 19.050049,19.050049 0 0 0 1.64538,-0.0729 c 0.34222,0.0466 0.69102,0.0729 1.04645,0.0729 h 22.70822 z" />
    <path
       id="path5518"
       style="font-variation-settings:normal;opacity:1;fill:none;fill-opacity:1;stroke:#ff0000;stroke-width:0.254001;stroke-linecap:round;stroke-linejoin:miter;stroke-miterlimit:4;stroke-dasharray:none;stroke-dashoffset:0;stroke-opacity:1;stop-color:#000000;stop-opacity:1"
       d="m 206.36692,11.950661 c 0,-4.22148 -3.39874,-7.62022 -7.62021,-7.62022 h -45.33942 c -0.36363,0 -0.72046,0.0267 -1.07023,0.0754 a 19.050049,19.050049 0 0 0 -1.62161,-0.0754 19.050049,19.050049 0 0 0 -19.05001,19.05004 19.050049,19.050049 0 0 0 19.05001,19.05004 19.050049,19.050049 0 0 0 1.64539,-0.0729 c 0.34222,0.0466 0.69102,0.0729 1.04645,0.0729 h 45.33942 c 4.22147,0 7.62021,-3.39874 7.62021,-7.62022 z" />
    <path
       id="path5520"
       style="fill:none;fill-opacity:1;stroke:#ff0000;stroke-width:0.254001;stroke-linecap:square;stroke-dasharray:none;stroke-opacity:1;stop-color:#000000"
       d="m 209.23296,42.210433 h 22.70822 c 0.36363,0 0.72045,-0.0268 1.07022,-0.0755 a 19.050049,19.050049 0 0 0 1.62161,0.0755 19.050049,19.050049 0 0 0 19.05003,-19.05004 19.050049,19.050049 0 0 0 -19.05003,-19.0500421 19.050049,19.050049 0 0 0 -1.64538,0.0729 c -0.34222,-0.0466 -0.69102,-0.0729 -1.04645,-0.0729 h -22.70822 z" />
    <circle
       style="fill:none;fill-opacity:1;stroke:#ff0000;stroke-width:0.254001;stroke-linecap:square;stroke-dasharray:none;stroke-opacity:1;stop-color:#000000"
       id="circle5522"
       cx="190.61879"
       cy="23.380482"
       r="0.76200151" />
    <path
       id="path5524"
       style="font-variation-settings:normal;opacity:1;fill:none;fill-opacity:1;stroke:#ff0000;stroke-width:0.254001;stroke-linecap:round;stroke-linejoin:miter;stroke-miterlimit:4;stroke-dasharray:none;stroke-dashoffset:0;stroke-opacity:1;stop-color:#000000;stop-opacity:1"
       d="m 51.981266,34.590206 c 0,4.22148 3.398737,7.62022 7.620204,7.62022 h 45.3394 c 0.36363,0 0.72046,-0.0267 1.07023,-0.0754 a 19.050049,19.050049 0 0 0 1.62161,0.0754 19.050049,19.050049 0 0 0 19.05001,-19.05004 19.050049,19.050049 0 0 0 -19.05001,-19.05004 19.050049,19.050049 0 0 0 -1.64539,0.0729 c -0.34222,-0.0466 -0.69102,-0.0729 -1.04645,-0.0729 h -45.3394 c -4.221467,0 -7.620204,3.39874 -7.620204,7.62022 z" />
    <path
       id="path5526"
       style="fill:none;fill-opacity:1;stroke:#ff0000;stroke-width:0.254001;stroke-linecap:square;stroke-dasharray:none;stroke-opacity:1;stop-color:#000000"
       d="M 49.115226,4.330436 H 26.407021 c -0.36363,0 -0.72045,0.0268 -1.07022,0.0755 a 19.050049,19.050049 0 0 0 -1.62161,-0.0755 19.050049,19.050049 0 0 0 -19.0500192,19.05004 19.050049,19.050049 0 0 0 19.0500192,19.05005 19.050049,19.050049 0 0 0 1.64538,-0.0729 c 0.34222,0.0466 0.69102,0.0729 1.04645,0.0729 h 22.708205 z" />
    <path
       id="path5528"
       style="font-variation-settings:normal;opacity:1;vector-effect:non-scaling-stroke;fill:none;fill-opacity:1;stroke:#ff0000;stroke-width:0.849916;stroke-linecap:round;stroke-linejoin:miter;stroke-miterlimit:4;stroke-dasharray:none;stroke-dashoffset:0;stroke-opacity:1;-inkscape-stroke:none;stop-color:#000000;stop-opacity:1"
       inkscape:label="Center plate"
       d="m 584.45331,241.37394 -62.07233,-120.69882 -0.007,181.68592 60.40215,-51.22023 -4.05558,-5.65342 z" />
  </g>
</svg>
